<svg width="1631" height="794" viewBox="0 0 1631 794" fill="none" xmlns="http://www.w3.org/2000/svg">
<rect x="2" y="2" width="1627" height="226" rx="36" fill="#151618" stroke="#4C5053" stroke-width="4"/>
<circle cx="114" cy="115" r="58" fill="#315638"/>
<path d="M129.531 103.788C128.5 102.737 126.827 102.738 125.795 103.788L108.983 120.923L101.51 113.308C100.478 112.256 98.8057 112.256 97.7739 113.308C96.742 114.36 96.742 116.064 97.7739 117.116L107.114 126.635C107.63 127.16 108.306 127.424 108.982 127.424C109.658 127.424 110.335 127.161 110.85 126.635L129.531 107.596C130.563 106.545 130.563 104.84 129.531 103.788Z" fill="white"/>
<circle cx="114" cy="115" r="39" stroke="#29B745" stroke-width="8"/>
<line y1="115" x2="76" y2="115" stroke="#29B745" stroke-width="8"/>
<path d="M1518.66 115L1534.24 99.4243C1535.25 98.4111 1535.25 96.773 1534.24 95.7599C1533.23 94.7467 1531.59 94.7467 1530.58 95.7599L1515 111.336L1499.42 95.7599C1498.41 94.7467 1496.77 94.7467 1495.76 95.7599C1494.75 96.773 1494.75 98.4111 1495.76 99.4243L1511.34 115L1495.76 130.576C1494.75 131.589 1494.75 133.228 1495.76 134.241C1496.27 134.746 1496.93 135 1497.59 135C1498.26 135 1498.92 134.746 1499.42 134.241L1515 118.665L1530.58 134.241C1531.08 134.746 1531.74 135 1532.41 135C1533.07 135 1533.73 134.746 1534.24 134.241C1535.25 133.228 1535.25 131.589 1534.24 130.576L1518.66 115Z" fill="#9B9FA3"/>
<path d="M229.024 135.392C226.411 135.392 224.059 134.944 221.968 134.048C219.877 133.115 218.235 131.808 217.04 130.128C215.845 128.448 215.248 126.488 215.248 124.248H222.08C222.229 125.928 222.883 127.309 224.04 128.392C225.235 129.475 226.896 130.016 229.024 130.016C231.227 130.016 232.944 129.493 234.176 128.448C235.408 127.365 236.024 125.984 236.024 124.304C236.024 122.997 235.632 121.933 234.848 121.112C234.101 120.291 233.149 119.656 231.992 119.208C230.872 118.76 229.304 118.275 227.288 117.752C224.749 117.08 222.677 116.408 221.072 115.736C219.504 115.027 218.16 113.944 217.04 112.488C215.92 111.032 215.36 109.091 215.36 106.664C215.36 104.424 215.92 102.464 217.04 100.784C218.16 99.104 219.728 97.816 221.744 96.92C223.76 96.024 226.093 95.576 228.744 95.576C232.515 95.576 235.595 96.528 237.984 98.432C240.411 100.299 241.755 102.875 242.016 106.16H234.96C234.848 104.741 234.176 103.528 232.944 102.52C231.712 101.512 230.088 101.008 228.072 101.008C226.243 101.008 224.749 101.475 223.592 102.408C222.435 103.341 221.856 104.685 221.856 106.44C221.856 107.635 222.211 108.624 222.92 109.408C223.667 110.155 224.6 110.752 225.72 111.2C226.84 111.648 228.371 112.133 230.312 112.656C232.888 113.365 234.979 114.075 236.584 114.784C238.227 115.493 239.608 116.595 240.728 118.088C241.885 119.544 242.464 121.504 242.464 123.968C242.464 125.947 241.923 127.813 240.84 129.568C239.795 131.323 238.245 132.741 236.192 133.824C234.176 134.869 231.787 135.392 229.024 135.392ZM277.941 104.144V135H271.557V131.36C270.549 132.629 269.224 133.637 267.581 134.384C265.976 135.093 264.258 135.448 262.429 135.448C260.002 135.448 257.818 134.944 255.877 133.936C253.973 132.928 252.461 131.435 251.341 129.456C250.258 127.477 249.717 125.088 249.717 122.288V104.144H256.045V121.336C256.045 124.099 256.736 126.227 258.117 127.72C259.498 129.176 261.384 129.904 263.773 129.904C266.162 129.904 268.048 129.176 269.429 127.72C270.848 126.227 271.557 124.099 271.557 121.336V104.144H277.941ZM284.236 119.544C284.236 116.371 284.871 113.589 286.14 111.2C287.447 108.773 289.239 106.907 291.516 105.6C293.793 104.293 296.407 103.64 299.356 103.64C303.089 103.64 306.169 104.536 308.596 106.328C311.06 108.083 312.721 110.603 313.58 113.888H306.692C306.132 112.357 305.236 111.163 304.004 110.304C302.772 109.445 301.223 109.016 299.356 109.016C296.743 109.016 294.652 109.949 293.084 111.816C291.553 113.645 290.788 116.221 290.788 119.544C290.788 122.867 291.553 125.461 293.084 127.328C294.652 129.195 296.743 130.128 299.356 130.128C303.052 130.128 305.497 128.504 306.692 125.256H313.58C312.684 128.392 311.004 130.893 308.54 132.76C306.076 134.589 303.015 135.504 299.356 135.504C296.407 135.504 293.793 134.851 291.516 133.544C289.239 132.2 287.447 130.333 286.14 127.944C284.871 125.517 284.236 122.717 284.236 119.544ZM317.814 119.544C317.814 116.371 318.449 113.589 319.718 111.2C321.025 108.773 322.817 106.907 325.094 105.6C327.372 104.293 329.985 103.64 332.934 103.64C336.668 103.64 339.748 104.536 342.174 106.328C344.638 108.083 346.3 110.603 347.158 113.888H340.27C339.71 112.357 338.814 111.163 337.582 110.304C336.35 109.445 334.801 109.016 332.934 109.016C330.321 109.016 328.23 109.949 326.662 111.816C325.132 113.645 324.366 116.221 324.366 119.544C324.366 122.867 325.132 125.461 326.662 127.328C328.23 129.195 330.321 130.128 332.934 130.128C336.63 130.128 339.076 128.504 340.27 125.256H347.158C346.262 128.392 344.582 130.893 342.118 132.76C339.654 134.589 336.593 135.504 332.934 135.504C329.985 135.504 327.372 134.851 325.094 133.544C322.817 132.2 321.025 130.333 319.718 127.944C318.449 125.517 317.814 122.717 317.814 119.544ZM381.8 118.816C381.8 119.973 381.726 121.019 381.576 121.952H358C358.187 124.416 359.102 126.395 360.744 127.888C362.387 129.381 364.403 130.128 366.792 130.128C370.227 130.128 372.654 128.691 374.072 125.816H380.96C380.027 128.653 378.328 130.987 375.864 132.816C373.438 134.608 370.414 135.504 366.792 135.504C363.843 135.504 361.192 134.851 358.84 133.544C356.526 132.2 354.696 130.333 353.352 127.944C352.046 125.517 351.392 122.717 351.392 119.544C351.392 116.371 352.027 113.589 353.296 111.2C354.603 108.773 356.414 106.907 358.728 105.6C361.08 104.293 363.768 103.64 366.792 103.64C369.704 103.64 372.299 104.275 374.576 105.544C376.854 106.813 378.627 108.605 379.896 110.92C381.166 113.197 381.8 115.829 381.8 118.816ZM375.136 116.8C375.099 114.448 374.259 112.563 372.616 111.144C370.974 109.725 368.939 109.016 366.512 109.016C364.31 109.016 362.424 109.725 360.856 111.144C359.288 112.525 358.355 114.411 358.056 116.8H375.136ZM399.283 135.504C396.856 135.504 394.672 135.075 392.731 134.216C390.827 133.32 389.315 132.125 388.195 130.632C387.075 129.101 386.477 127.403 386.403 125.536H393.011C393.123 126.843 393.739 127.944 394.859 128.84C396.016 129.699 397.453 130.128 399.171 130.128C400.963 130.128 402.344 129.792 403.315 129.12C404.323 128.411 404.827 127.515 404.827 126.432C404.827 125.275 404.267 124.416 403.147 123.856C402.064 123.296 400.328 122.68 397.939 122.008C395.624 121.373 393.739 120.757 392.283 120.16C390.827 119.563 389.557 118.648 388.475 117.416C387.429 116.184 386.907 114.56 386.907 112.544C386.907 110.901 387.392 109.408 388.363 108.064C389.333 106.683 390.715 105.6 392.507 104.816C394.336 104.032 396.427 103.64 398.779 103.64C402.288 103.64 405.107 104.536 407.235 106.328C409.4 108.083 410.557 110.491 410.707 113.552H404.323C404.211 112.171 403.651 111.069 402.643 110.248C401.635 109.427 400.272 109.016 398.555 109.016C396.875 109.016 395.587 109.333 394.691 109.968C393.795 110.603 393.347 111.443 393.347 112.488C393.347 113.309 393.645 114 394.243 114.56C394.84 115.12 395.568 115.568 396.427 115.904C397.285 116.203 398.555 116.595 400.235 117.08C402.475 117.677 404.304 118.293 405.723 118.928C407.179 119.525 408.429 120.421 409.475 121.616C410.52 122.811 411.061 124.397 411.099 126.376C411.099 128.131 410.613 129.699 409.643 131.08C408.672 132.461 407.291 133.544 405.499 134.328C403.744 135.112 401.672 135.504 399.283 135.504ZM429.197 135.504C426.77 135.504 424.586 135.075 422.645 134.216C420.741 133.32 419.229 132.125 418.109 130.632C416.989 129.101 416.392 127.403 416.317 125.536H422.925C423.037 126.843 423.653 127.944 424.773 128.84C425.93 129.699 427.368 130.128 429.085 130.128C430.877 130.128 432.258 129.792 433.229 129.12C434.237 128.411 434.741 127.515 434.741 126.432C434.741 125.275 434.181 124.416 433.061 123.856C431.978 123.296 430.242 122.68 427.853 122.008C425.538 121.373 423.653 120.757 422.197 120.16C420.741 119.563 419.472 118.648 418.389 117.416C417.344 116.184 416.821 114.56 416.821 112.544C416.821 110.901 417.306 109.408 418.277 108.064C419.248 106.683 420.629 105.6 422.421 104.816C424.25 104.032 426.341 103.64 428.693 103.64C432.202 103.64 435.021 104.536 437.149 106.328C439.314 108.083 440.472 110.491 440.621 113.552H434.237C434.125 112.171 433.565 111.069 432.557 110.248C431.549 109.427 430.186 109.016 428.469 109.016C426.789 109.016 425.501 109.333 424.605 109.968C423.709 110.603 423.261 111.443 423.261 112.488C423.261 113.309 423.56 114 424.157 114.56C424.754 115.12 425.482 115.568 426.341 115.904C427.2 116.203 428.469 116.595 430.149 117.08C432.389 117.677 434.218 118.293 435.637 118.928C437.093 119.525 438.344 120.421 439.389 121.616C440.434 122.811 440.976 124.397 441.013 126.376C441.013 128.131 440.528 129.699 439.557 131.08C438.586 132.461 437.205 133.544 435.413 134.328C433.658 135.112 431.586 135.504 429.197 135.504Z" fill="white"/>
<path d="M486.064 118.248C486.064 114.984 486.8 112.056 488.272 109.464C489.744 106.84 491.744 104.792 494.272 103.32C496.832 101.848 499.664 101.112 502.768 101.112C506.416 101.112 509.6 101.992 512.32 103.752C515.04 105.512 517.024 108.008 518.272 111.24H513.04C512.112 109.224 510.768 107.672 509.008 106.584C507.28 105.496 505.2 104.952 502.768 104.952C500.432 104.952 498.336 105.496 496.48 106.584C494.624 107.672 493.168 109.224 492.112 111.24C491.056 113.224 490.528 115.56 490.528 118.248C490.528 120.904 491.056 123.24 492.112 125.256C493.168 127.24 494.624 128.776 496.48 129.864C498.336 130.952 500.432 131.496 502.768 131.496C505.2 131.496 507.28 130.968 509.008 129.912C510.768 128.824 512.112 127.272 513.04 125.256H518.272C517.024 128.456 515.04 130.936 512.32 132.696C509.6 134.424 506.416 135.288 502.768 135.288C499.664 135.288 496.832 134.568 494.272 133.128C491.744 131.656 489.744 129.624 488.272 127.032C486.8 124.44 486.064 121.512 486.064 118.248ZM537.83 108.216C539.814 108.216 541.606 108.648 543.206 109.512C544.806 110.344 546.054 111.608 546.95 113.304C547.878 115 548.342 117.064 548.342 119.496V135H544.022V120.12C544.022 117.496 543.366 115.496 542.054 114.12C540.742 112.712 538.95 112.008 536.678 112.008C534.374 112.008 532.534 112.728 531.158 114.168C529.814 115.608 529.142 117.704 529.142 120.456V135H524.774V99.48H529.142V112.44C530.006 111.096 531.19 110.056 532.694 109.32C534.23 108.584 535.942 108.216 537.83 108.216ZM553.845 121.752C553.845 119.064 554.389 116.712 555.477 114.696C556.565 112.648 558.053 111.064 559.941 109.944C561.861 108.824 563.989 108.264 566.325 108.264C568.629 108.264 570.629 108.76 572.325 109.752C574.021 110.744 575.285 111.992 576.117 113.496V108.696H580.533V135H576.117V130.104C575.253 131.64 573.957 132.92 572.229 133.944C570.533 134.936 568.549 135.432 566.277 135.432C563.941 135.432 561.829 134.856 559.941 133.704C558.053 132.552 556.565 130.936 555.477 128.856C554.389 126.776 553.845 124.408 553.845 121.752ZM576.117 121.8C576.117 119.816 575.717 118.088 574.917 116.616C574.117 115.144 573.029 114.024 571.653 113.256C570.309 112.456 568.821 112.056 567.189 112.056C565.557 112.056 564.069 112.44 562.725 113.208C561.381 113.976 560.309 115.096 559.509 116.568C558.709 118.04 558.309 119.768 558.309 121.752C558.309 123.768 558.709 125.528 559.509 127.032C560.309 128.504 561.381 129.64 562.725 130.44C564.069 131.208 565.557 131.592 567.189 131.592C568.821 131.592 570.309 131.208 571.653 130.44C573.029 129.64 574.117 128.504 574.917 127.032C575.717 125.528 576.117 123.784 576.117 121.8ZM600.731 108.216C603.931 108.216 606.523 109.192 608.507 111.144C610.491 113.064 611.483 115.848 611.483 119.496V135H607.163V120.12C607.163 117.496 606.507 115.496 605.195 114.12C603.883 112.712 602.091 112.008 599.819 112.008C597.515 112.008 595.675 112.728 594.299 114.168C592.955 115.608 592.283 117.704 592.283 120.456V135H587.915V108.696H592.283V112.44C593.147 111.096 594.315 110.056 595.787 109.32C597.291 108.584 598.939 108.216 600.731 108.216ZM629.466 108.264C631.738 108.264 633.722 108.76 635.418 109.752C637.146 110.744 638.426 111.992 639.258 113.496V108.696H643.674V135.576C643.674 137.976 643.162 140.104 642.138 141.96C641.114 143.848 639.642 145.32 637.722 146.376C635.834 147.432 633.626 147.96 631.098 147.96C627.642 147.96 624.762 147.144 622.458 145.512C620.154 143.88 618.794 141.656 618.378 138.84H622.698C623.178 140.44 624.17 141.72 625.674 142.68C627.178 143.672 628.986 144.168 631.098 144.168C633.498 144.168 635.45 143.416 636.954 141.912C638.49 140.408 639.258 138.296 639.258 135.576V130.056C638.394 131.592 637.114 132.872 635.418 133.896C633.722 134.92 631.738 135.432 629.466 135.432C627.13 135.432 625.002 134.856 623.082 133.704C621.194 132.552 619.706 130.936 618.618 128.856C617.53 126.776 616.986 124.408 616.986 121.752C616.986 119.064 617.53 116.712 618.618 114.696C619.706 112.648 621.194 111.064 623.082 109.944C625.002 108.824 627.13 108.264 629.466 108.264ZM639.258 121.8C639.258 119.816 638.858 118.088 638.058 116.616C637.258 115.144 636.17 114.024 634.794 113.256C633.45 112.456 631.962 112.056 630.33 112.056C628.698 112.056 627.21 112.44 625.866 113.208C624.522 113.976 623.45 115.096 622.65 116.568C621.85 118.04 621.45 119.768 621.45 121.752C621.45 123.768 621.85 125.528 622.65 127.032C623.45 128.504 624.522 129.64 625.866 130.44C627.21 131.208 628.698 131.592 630.33 131.592C631.962 131.592 633.45 131.208 634.794 130.44C636.17 129.64 637.258 128.504 638.058 127.032C638.858 125.528 639.258 123.784 639.258 121.8ZM675.055 120.84C675.055 121.672 675.007 122.552 674.911 123.48H653.887C654.047 126.072 654.927 128.104 656.527 129.576C658.159 131.016 660.127 131.736 662.431 131.736C664.319 131.736 665.887 131.304 667.135 130.44C668.415 129.544 669.311 128.36 669.823 126.888H674.527C673.823 129.416 672.415 131.48 670.303 133.08C668.191 134.648 665.567 135.432 662.431 135.432C659.935 135.432 657.695 134.872 655.711 133.752C653.759 132.632 652.223 131.048 651.103 129C649.983 126.92 649.423 124.52 649.423 121.8C649.423 119.08 649.967 116.696 651.055 114.648C652.143 112.6 653.663 111.032 655.615 109.944C657.599 108.824 659.871 108.264 662.431 108.264C664.927 108.264 667.135 108.808 669.055 109.896C670.975 110.984 672.447 112.488 673.471 114.408C674.527 116.296 675.055 118.44 675.055 120.84ZM670.543 119.928C670.543 118.264 670.175 116.84 669.439 115.656C668.703 114.44 667.695 113.528 666.415 112.92C665.167 112.28 663.775 111.96 662.239 111.96C660.031 111.96 658.143 112.664 656.575 114.072C655.039 115.48 654.159 117.432 653.935 119.928H670.543ZM690.133 135.432C688.117 135.432 686.309 135.096 684.709 134.424C683.109 133.72 681.845 132.76 680.917 131.544C679.989 130.296 679.477 128.872 679.381 127.272H683.893C684.021 128.584 684.629 129.656 685.717 130.488C686.837 131.32 688.293 131.736 690.085 131.736C691.749 131.736 693.061 131.368 694.021 130.632C694.981 129.896 695.461 128.968 695.461 127.848C695.461 126.696 694.949 125.848 693.925 125.304C692.901 124.728 691.317 124.168 689.173 123.624C687.221 123.112 685.621 122.6 684.373 122.088C683.157 121.544 682.101 120.76 681.205 119.736C680.341 118.68 679.909 117.304 679.909 115.608C679.909 114.264 680.309 113.032 681.109 111.912C681.909 110.792 683.045 109.912 684.517 109.272C685.989 108.6 687.669 108.264 689.557 108.264C692.469 108.264 694.821 109 696.613 110.472C698.405 111.944 699.365 113.96 699.493 116.52H695.125C695.029 115.144 694.469 114.04 693.445 113.208C692.453 112.376 691.109 111.96 689.413 111.96C687.845 111.96 686.597 112.296 685.669 112.968C684.741 113.64 684.277 114.52 684.277 115.608C684.277 116.472 684.549 117.192 685.093 117.768C685.669 118.312 686.373 118.76 687.205 119.112C688.069 119.432 689.253 119.8 690.757 120.216C692.645 120.728 694.181 121.24 695.365 121.752C696.549 122.232 697.557 122.968 698.389 123.96C699.253 124.952 699.701 126.248 699.733 127.848C699.733 129.288 699.333 130.584 698.533 131.736C697.733 132.888 696.597 133.8 695.125 134.472C693.685 135.112 692.021 135.432 690.133 135.432ZM728.008 135.432C725.992 135.432 724.184 135.096 722.584 134.424C720.984 133.72 719.72 132.76 718.792 131.544C717.864 130.296 717.352 128.872 717.256 127.272H721.768C721.896 128.584 722.504 129.656 723.592 130.488C724.712 131.32 726.168 131.736 727.96 131.736C729.624 131.736 730.936 131.368 731.896 130.632C732.856 129.896 733.336 128.968 733.336 127.848C733.336 126.696 732.824 125.848 731.8 125.304C730.776 124.728 729.192 124.168 727.048 123.624C725.096 123.112 723.496 122.6 722.248 122.088C721.032 121.544 719.976 120.76 719.08 119.736C718.216 118.68 717.784 117.304 717.784 115.608C717.784 114.264 718.184 113.032 718.984 111.912C719.784 110.792 720.92 109.912 722.392 109.272C723.864 108.6 725.544 108.264 727.432 108.264C730.344 108.264 732.696 109 734.488 110.472C736.28 111.944 737.24 113.96 737.368 116.52H733C732.904 115.144 732.344 114.04 731.32 113.208C730.328 112.376 728.984 111.96 727.288 111.96C725.72 111.96 724.472 112.296 723.544 112.968C722.616 113.64 722.152 114.52 722.152 115.608C722.152 116.472 722.424 117.192 722.968 117.768C723.544 118.312 724.248 118.76 725.08 119.112C725.944 119.432 727.128 119.8 728.632 120.216C730.52 120.728 732.056 121.24 733.24 121.752C734.424 122.232 735.432 122.968 736.264 123.96C737.128 124.952 737.576 126.248 737.608 127.848C737.608 129.288 737.208 130.584 736.408 131.736C735.608 132.888 734.472 133.8 733 134.472C731.56 135.112 729.896 135.432 728.008 135.432ZM742.142 121.752C742.142 119.064 742.686 116.712 743.774 114.696C744.862 112.648 746.35 111.064 748.238 109.944C750.158 108.824 752.286 108.264 754.622 108.264C756.926 108.264 758.926 108.76 760.622 109.752C762.318 110.744 763.582 111.992 764.414 113.496V108.696H768.83V135H764.414V130.104C763.55 131.64 762.254 132.92 760.526 133.944C758.83 134.936 756.846 135.432 754.574 135.432C752.238 135.432 750.126 134.856 748.238 133.704C746.35 132.552 744.862 130.936 743.774 128.856C742.686 126.776 742.142 124.408 742.142 121.752ZM764.414 121.8C764.414 119.816 764.014 118.088 763.214 116.616C762.414 115.144 761.326 114.024 759.95 113.256C758.606 112.456 757.118 112.056 755.486 112.056C753.854 112.056 752.366 112.44 751.022 113.208C749.678 113.976 748.606 115.096 747.806 116.568C747.006 118.04 746.606 119.768 746.606 121.752C746.606 123.768 747.006 125.528 747.806 127.032C748.606 128.504 749.678 129.64 751.022 130.44C752.366 131.208 753.854 131.592 755.486 131.592C757.118 131.592 758.606 131.208 759.95 130.44C761.326 129.64 762.414 128.504 763.214 127.032C764.014 125.528 764.414 123.784 764.414 121.8ZM786.004 130.968L794.164 108.696H798.82L788.5 135H783.412L773.092 108.696H777.796L786.004 130.968ZM827.118 120.84C827.118 121.672 827.07 122.552 826.974 123.48H805.95C806.11 126.072 806.99 128.104 808.59 129.576C810.222 131.016 812.19 131.736 814.494 131.736C816.382 131.736 817.95 131.304 819.198 130.44C820.478 129.544 821.374 128.36 821.886 126.888H826.59C825.886 129.416 824.478 131.48 822.366 133.08C820.254 134.648 817.63 135.432 814.494 135.432C811.998 135.432 809.758 134.872 807.774 133.752C805.822 132.632 804.286 131.048 803.166 129C802.046 126.92 801.486 124.52 801.486 121.8C801.486 119.08 802.03 116.696 803.118 114.648C804.206 112.6 805.726 111.032 807.678 109.944C809.662 108.824 811.934 108.264 814.494 108.264C816.99 108.264 819.198 108.808 821.118 109.896C823.038 110.984 824.51 112.488 825.534 114.408C826.59 116.296 827.118 118.44 827.118 120.84ZM822.606 119.928C822.606 118.264 822.238 116.84 821.502 115.656C820.766 114.44 819.758 113.528 818.478 112.92C817.23 112.28 815.838 111.96 814.302 111.96C812.094 111.96 810.206 112.664 808.638 114.072C807.102 115.48 806.222 117.432 805.998 119.928H822.606ZM831.252 121.752C831.252 119.064 831.796 116.712 832.884 114.696C833.972 112.648 835.46 111.064 837.348 109.944C839.268 108.824 841.412 108.264 843.78 108.264C845.828 108.264 847.732 108.744 849.492 109.704C851.252 110.632 852.596 111.864 853.524 113.4V99.48H857.94V135H853.524V130.056C852.66 131.624 851.38 132.92 849.684 133.944C847.988 134.936 846.004 135.432 843.732 135.432C841.396 135.432 839.268 134.856 837.348 133.704C835.46 132.552 833.972 130.936 832.884 128.856C831.796 126.776 831.252 124.408 831.252 121.752ZM853.524 121.8C853.524 119.816 853.124 118.088 852.324 116.616C851.524 115.144 850.436 114.024 849.06 113.256C847.716 112.456 846.228 112.056 844.596 112.056C842.964 112.056 841.476 112.44 840.132 113.208C838.788 113.976 837.716 115.096 836.916 116.568C836.116 118.04 835.716 119.768 835.716 121.752C835.716 123.768 836.116 125.528 836.916 127.032C837.716 128.504 838.788 129.64 840.132 130.44C841.476 131.208 842.964 131.592 844.596 131.592C846.228 131.592 847.716 131.208 849.06 130.44C850.436 129.64 851.524 128.504 852.324 127.032C853.124 125.528 853.524 123.784 853.524 121.8Z" fill="#9B9FA3"/>
<rect x="2" y="284" width="1627" height="226" rx="36" fill="#151618" stroke="#4C5053" stroke-width="4"/>
<circle cx="114" cy="397" r="58" fill="#5B221B"/>
<g clip-path="url(#clip0_15243_1800)">
<mask id="mask0_15243_1800" style="mask-type:luminance" maskUnits="userSpaceOnUse" x="88" y="370" width="53" height="53">
<path d="M88 370H141V423H88V370Z" fill="white"/>
</mask>
<g mask="url(#mask0_15243_1800)">
<path d="M114.499 374.997C102.469 374.997 92.7051 384.761 92.7051 396.792C92.7051 408.822 102.469 418.586 114.499 418.586C126.53 418.586 136.294 408.822 136.294 396.792C136.294 384.761 126.53 374.997 114.499 374.997ZM114.499 414.227C104.866 414.227 97.0639 406.425 97.0639 396.792C97.0639 392.76 98.437 389.055 100.747 386.112L125.179 410.544C122.236 412.854 118.531 414.227 114.499 414.227ZM128.252 407.471L103.82 383.039C106.762 380.729 110.467 379.356 114.499 379.356C124.132 379.356 131.935 387.159 131.935 396.792C131.935 400.824 130.562 404.529 128.252 407.471Z" fill="white"/>
</g>
</g>
<circle cx="114" cy="397" r="39" stroke="#F16953" stroke-width="8"/>
<line y1="397" x2="76" y2="397" stroke="#F16953" stroke-width="8"/>
<path d="M1518.66 397L1534.24 381.424C1535.25 380.411 1535.25 378.773 1534.24 377.76C1533.23 376.747 1531.59 376.747 1530.58 377.76L1515 393.336L1499.42 377.76C1498.41 376.747 1496.77 376.747 1495.76 377.76C1494.75 378.773 1494.75 380.411 1495.76 381.424L1511.34 397L1495.76 412.576C1494.75 413.589 1494.75 415.228 1495.76 416.241C1496.27 416.746 1496.93 417 1497.59 417C1498.26 417 1498.92 416.746 1499.42 416.241L1515 400.665L1530.58 416.241C1531.08 416.746 1531.74 417 1532.41 417C1533.07 417 1533.73 416.746 1534.24 416.241C1535.25 415.228 1535.25 413.589 1534.24 412.576L1518.66 397Z" fill="#9B9FA3"/>
<path d="M222.584 383.232V394.656H236.024V399.864H222.584V411.792H237.704V417H216.2V378.024H237.704V383.232H222.584ZM251.951 390.624C252.885 389.056 254.117 387.843 255.647 386.984C257.215 386.088 259.063 385.64 261.191 385.64V392.248H259.567C257.066 392.248 255.162 392.883 253.855 394.152C252.586 395.421 251.951 397.624 251.951 400.76V417H245.567V386.144H251.951V390.624ZM273.443 390.624C274.377 389.056 275.609 387.843 277.139 386.984C278.707 386.088 280.555 385.64 282.683 385.64V392.248H281.059C278.558 392.248 276.654 392.883 275.347 394.152C274.078 395.421 273.443 397.624 273.443 400.76V417H267.059V386.144H273.443V390.624ZM301.936 417.504C299.024 417.504 296.392 416.851 294.04 415.544C291.688 414.2 289.84 412.333 288.496 409.944C287.152 407.517 286.48 404.717 286.48 401.544C286.48 398.408 287.17 395.627 288.552 393.2C289.933 390.773 291.818 388.907 294.208 387.6C296.597 386.293 299.266 385.64 302.216 385.64C305.165 385.64 307.834 386.293 310.224 387.6C312.613 388.907 314.498 390.773 315.88 393.2C317.261 395.627 317.952 398.408 317.952 401.544C317.952 404.68 317.242 407.461 315.824 409.888C314.405 412.315 312.464 414.2 310 415.544C307.573 416.851 304.885 417.504 301.936 417.504ZM301.936 411.96C303.578 411.96 305.109 411.568 306.528 410.784C307.984 410 309.16 408.824 310.056 407.256C310.952 405.688 311.4 403.784 311.4 401.544C311.4 399.304 310.97 397.419 310.112 395.888C309.253 394.32 308.114 393.144 306.696 392.36C305.277 391.576 303.746 391.184 302.104 391.184C300.461 391.184 298.93 391.576 297.512 392.36C296.13 393.144 295.029 394.32 294.208 395.888C293.386 397.419 292.976 399.304 292.976 401.544C292.976 404.867 293.816 407.443 295.496 409.272C297.213 411.064 299.36 411.96 301.936 411.96ZM330.647 390.624C331.58 389.056 332.812 387.843 334.343 386.984C335.911 386.088 337.759 385.64 339.887 385.64V392.248H338.263C335.761 392.248 333.857 392.883 332.551 394.152C331.281 395.421 330.647 397.624 330.647 400.76V417H324.263V386.144H330.647V390.624Z" fill="white"/>
<path d="M396.304 417.336C394.096 417.336 392.112 416.952 390.352 416.184C388.624 415.384 387.264 414.296 386.272 412.92C385.28 411.512 384.768 409.896 384.736 408.072H389.392C389.552 409.64 390.192 410.968 391.312 412.056C392.464 413.112 394.128 413.64 396.304 413.64C398.384 413.64 400.016 413.128 401.2 412.104C402.416 411.048 403.024 409.704 403.024 408.072C403.024 406.792 402.672 405.752 401.968 404.952C401.264 404.152 400.384 403.544 399.328 403.128C398.272 402.712 396.848 402.264 395.056 401.784C392.848 401.208 391.072 400.632 389.728 400.056C388.416 399.48 387.28 398.584 386.32 397.368C385.392 396.12 384.928 394.456 384.928 392.376C384.928 390.552 385.392 388.936 386.32 387.528C387.248 386.12 388.544 385.032 390.208 384.264C391.904 383.496 393.84 383.112 396.016 383.112C399.152 383.112 401.712 383.896 403.696 385.464C405.712 387.032 406.848 389.112 407.104 391.704H402.304C402.144 390.424 401.472 389.304 400.288 388.344C399.104 387.352 397.536 386.856 395.584 386.856C393.76 386.856 392.272 387.336 391.12 388.296C389.968 389.224 389.392 390.536 389.392 392.232C389.392 393.448 389.728 394.44 390.4 395.208C391.104 395.976 391.952 396.568 392.944 396.984C393.968 397.368 395.392 397.816 397.216 398.328C399.424 398.936 401.2 399.544 402.544 400.152C403.888 400.728 405.04 401.64 406 402.888C406.96 404.104 407.44 405.768 407.44 407.88C407.44 409.512 407.008 411.048 406.144 412.488C405.28 413.928 404 415.096 402.304 415.992C400.608 416.888 398.608 417.336 396.304 417.336ZM425.34 417.432C422.876 417.432 420.636 416.872 418.62 415.752C416.636 414.632 415.068 413.048 413.916 411C412.796 408.92 412.236 406.52 412.236 403.8C412.236 401.112 412.812 398.744 413.964 396.696C415.148 394.616 416.748 393.032 418.764 391.944C420.78 390.824 423.036 390.264 425.532 390.264C428.028 390.264 430.284 390.824 432.3 391.944C434.316 393.032 435.9 394.6 437.052 396.648C438.236 398.696 438.828 401.08 438.828 403.8C438.828 406.52 438.22 408.92 437.004 411C435.82 413.048 434.204 414.632 432.156 415.752C430.108 416.872 427.836 417.432 425.34 417.432ZM425.34 413.592C426.908 413.592 428.38 413.224 429.756 412.488C431.132 411.752 432.236 410.648 433.068 409.176C433.932 407.704 434.364 405.912 434.364 403.8C434.364 401.688 433.948 399.896 433.116 398.424C432.284 396.952 431.196 395.864 429.852 395.16C428.508 394.424 427.052 394.056 425.484 394.056C423.884 394.056 422.412 394.424 421.068 395.16C419.756 395.864 418.7 396.952 417.9 398.424C417.1 399.896 416.7 401.688 416.7 403.8C416.7 405.944 417.084 407.752 417.852 409.224C418.652 410.696 419.708 411.8 421.02 412.536C422.332 413.24 423.772 413.592 425.34 413.592ZM476.203 390.216C478.251 390.216 480.075 390.648 481.675 391.512C483.275 392.344 484.539 393.608 485.467 395.304C486.395 397 486.859 399.064 486.859 401.496V417H482.539V402.12C482.539 399.496 481.883 397.496 480.571 396.12C479.291 394.712 477.547 394.008 475.339 394.008C473.067 394.008 471.259 394.744 469.915 396.216C468.571 397.656 467.899 399.752 467.899 402.504V417H463.579V402.12C463.579 399.496 462.923 397.496 461.611 396.12C460.331 394.712 458.587 394.008 456.379 394.008C454.107 394.008 452.299 394.744 450.955 396.216C449.611 397.656 448.939 399.752 448.939 402.504V417H444.571V390.696H448.939V394.488C449.803 393.112 450.955 392.056 452.395 391.32C453.867 390.584 455.483 390.216 457.243 390.216C459.451 390.216 461.403 390.712 463.099 391.704C464.795 392.696 466.059 394.152 466.891 396.072C467.627 394.216 468.843 392.776 470.539 391.752C472.235 390.728 474.123 390.216 476.203 390.216ZM518.024 402.84C518.024 403.672 517.976 404.552 517.88 405.48H496.856C497.016 408.072 497.896 410.104 499.496 411.576C501.128 413.016 503.096 413.736 505.4 413.736C507.288 413.736 508.856 413.304 510.104 412.44C511.384 411.544 512.28 410.36 512.792 408.888H517.496C516.792 411.416 515.384 413.48 513.272 415.08C511.16 416.648 508.536 417.432 505.4 417.432C502.904 417.432 500.664 416.872 498.68 415.752C496.728 414.632 495.192 413.048 494.072 411C492.952 408.92 492.392 406.52 492.392 403.8C492.392 401.08 492.936 398.696 494.024 396.648C495.112 394.6 496.632 393.032 498.584 391.944C500.568 390.824 502.84 390.264 505.4 390.264C507.896 390.264 510.104 390.808 512.024 391.896C513.944 392.984 515.416 394.488 516.44 396.408C517.496 398.296 518.024 400.44 518.024 402.84ZM513.512 401.928C513.512 400.264 513.144 398.84 512.408 397.656C511.672 396.44 510.664 395.528 509.384 394.92C508.136 394.28 506.744 393.96 505.208 393.96C503 393.96 501.112 394.664 499.544 396.072C498.008 397.48 497.128 399.432 496.904 401.928H513.512ZM529.118 394.296V409.8C529.118 411.08 529.39 411.992 529.934 412.536C530.478 413.048 531.422 413.304 532.766 413.304H535.982V417H532.046C529.614 417 527.79 416.44 526.574 415.32C525.358 414.2 524.75 412.36 524.75 409.8V394.296H521.342V390.696H524.75V384.072H529.118V390.696H535.982V394.296H529.118ZM554.33 390.216C556.314 390.216 558.106 390.648 559.706 391.512C561.306 392.344 562.554 393.608 563.45 395.304C564.378 397 564.842 399.064 564.842 401.496V417H560.522V402.12C560.522 399.496 559.866 397.496 558.554 396.12C557.242 394.712 555.45 394.008 553.178 394.008C550.874 394.008 549.034 394.728 547.658 396.168C546.314 397.608 545.642 399.704 545.642 402.456V417H541.274V381.48H545.642V394.44C546.506 393.096 547.69 392.056 549.194 391.32C550.73 390.584 552.442 390.216 554.33 390.216ZM574.233 386.424C573.401 386.424 572.697 386.136 572.121 385.56C571.545 384.984 571.257 384.28 571.257 383.448C571.257 382.616 571.545 381.912 572.121 381.336C572.697 380.76 573.401 380.472 574.233 380.472C575.033 380.472 575.705 380.76 576.249 381.336C576.825 381.912 577.113 382.616 577.113 383.448C577.113 384.28 576.825 384.984 576.249 385.56C575.705 386.136 575.033 386.424 574.233 386.424ZM576.345 390.696V417H571.977V390.696H576.345ZM596.606 390.216C599.806 390.216 602.398 391.192 604.382 393.144C606.366 395.064 607.358 397.848 607.358 401.496V417H603.038V402.12C603.038 399.496 602.382 397.496 601.07 396.12C599.758 394.712 597.966 394.008 595.694 394.008C593.39 394.008 591.55 394.728 590.174 396.168C588.83 397.608 588.158 399.704 588.158 402.456V417H583.79V390.696H588.158V394.44C589.022 393.096 590.19 392.056 591.662 391.32C593.166 390.584 594.814 390.216 596.606 390.216ZM625.341 390.264C627.613 390.264 629.597 390.76 631.293 391.752C633.021 392.744 634.301 393.992 635.133 395.496V390.696H639.549V417.576C639.549 419.976 639.037 422.104 638.013 423.96C636.989 425.848 635.517 427.32 633.597 428.376C631.709 429.432 629.501 429.96 626.973 429.96C623.517 429.96 620.637 429.144 618.333 427.512C616.029 425.88 614.669 423.656 614.253 420.84H618.573C619.053 422.44 620.045 423.72 621.549 424.68C623.053 425.672 624.861 426.168 626.973 426.168C629.373 426.168 631.325 425.416 632.829 423.912C634.365 422.408 635.133 420.296 635.133 417.576V412.056C634.269 413.592 632.989 414.872 631.293 415.896C629.597 416.92 627.613 417.432 625.341 417.432C623.005 417.432 620.877 416.856 618.957 415.704C617.069 414.552 615.581 412.936 614.493 410.856C613.405 408.776 612.861 406.408 612.861 403.752C612.861 401.064 613.405 398.712 614.493 396.696C615.581 394.648 617.069 393.064 618.957 391.944C620.877 390.824 623.005 390.264 625.341 390.264ZM635.133 403.8C635.133 401.816 634.733 400.088 633.933 398.616C633.133 397.144 632.045 396.024 630.669 395.256C629.325 394.456 627.837 394.056 626.205 394.056C624.573 394.056 623.085 394.44 621.741 395.208C620.397 395.976 619.325 397.096 618.525 398.568C617.725 400.04 617.325 401.768 617.325 403.752C617.325 405.768 617.725 407.528 618.525 409.032C619.325 410.504 620.397 411.64 621.741 412.44C623.085 413.208 624.573 413.592 626.205 413.592C627.837 413.592 629.325 413.208 630.669 412.44C632.045 411.64 633.133 410.504 633.933 409.032C634.733 407.528 635.133 405.784 635.133 403.8ZM694.767 390.696L686.559 417H682.047L675.711 396.12L669.375 417H664.863L656.607 390.696H661.071L667.119 412.776L673.647 390.696H678.111L684.495 412.824L690.447 390.696H694.767ZM723.102 402.84C723.102 403.672 723.054 404.552 722.958 405.48H701.934C702.094 408.072 702.974 410.104 704.574 411.576C706.206 413.016 708.174 413.736 710.478 413.736C712.366 413.736 713.934 413.304 715.182 412.44C716.462 411.544 717.358 410.36 717.87 408.888H722.574C721.87 411.416 720.462 413.48 718.35 415.08C716.238 416.648 713.614 417.432 710.478 417.432C707.982 417.432 705.742 416.872 703.758 415.752C701.806 414.632 700.27 413.048 699.15 411C698.03 408.92 697.47 406.52 697.47 403.8C697.47 401.08 698.014 398.696 699.102 396.648C700.19 394.6 701.71 393.032 703.662 391.944C705.646 390.824 707.918 390.264 710.478 390.264C712.974 390.264 715.182 390.808 717.102 391.896C719.022 392.984 720.494 394.488 721.518 396.408C722.574 398.296 723.102 400.44 723.102 402.84ZM718.59 401.928C718.59 400.264 718.222 398.84 717.486 397.656C716.75 396.44 715.742 395.528 714.462 394.92C713.214 394.28 711.822 393.96 710.286 393.96C708.078 393.96 706.19 394.664 704.622 396.072C703.086 397.48 702.206 399.432 701.982 401.928H718.59ZM741.684 390.216C744.884 390.216 747.476 391.192 749.46 393.144C751.444 395.064 752.436 397.848 752.436 401.496V417H748.116V402.12C748.116 399.496 747.46 397.496 746.148 396.12C744.836 394.712 743.044 394.008 740.772 394.008C738.468 394.008 736.628 394.728 735.252 396.168C733.908 397.608 733.236 399.704 733.236 402.456V417H728.868V390.696H733.236V394.44C734.1 393.096 735.268 392.056 736.74 391.32C738.244 390.584 739.892 390.216 741.684 390.216ZM764.899 394.296V409.8C764.899 411.08 765.171 411.992 765.715 412.536C766.259 413.048 767.203 413.304 768.547 413.304H771.763V417H767.827C765.395 417 763.571 416.44 762.355 415.32C761.139 414.2 760.531 412.36 760.531 409.8V394.296H757.123V390.696H760.531V384.072H764.899V390.696H771.763V394.296H764.899ZM824.892 390.696L816.684 417H812.172L805.836 396.12L799.5 417H794.988L786.732 390.696H791.196L797.244 412.776L803.772 390.696H808.236L814.62 412.824L820.572 390.696H824.892ZM833.595 394.968C834.363 393.464 835.451 392.296 836.859 391.464C838.299 390.632 840.043 390.216 842.091 390.216V394.728H840.939C836.043 394.728 833.595 397.384 833.595 402.696V417H829.227V390.696H833.595V394.968ZM858.606 417.432C856.142 417.432 853.902 416.872 851.886 415.752C849.902 414.632 848.334 413.048 847.182 411C846.062 408.92 845.502 406.52 845.502 403.8C845.502 401.112 846.078 398.744 847.23 396.696C848.414 394.616 850.014 393.032 852.03 391.944C854.046 390.824 856.302 390.264 858.798 390.264C861.294 390.264 863.55 390.824 865.566 391.944C867.582 393.032 869.166 394.6 870.318 396.648C871.502 398.696 872.094 401.08 872.094 403.8C872.094 406.52 871.486 408.92 870.27 411C869.086 413.048 867.47 414.632 865.422 415.752C863.374 416.872 861.102 417.432 858.606 417.432ZM858.606 413.592C860.174 413.592 861.646 413.224 863.022 412.488C864.398 411.752 865.502 410.648 866.334 409.176C867.198 407.704 867.63 405.912 867.63 403.8C867.63 401.688 867.214 399.896 866.382 398.424C865.55 396.952 864.462 395.864 863.118 395.16C861.774 394.424 860.318 394.056 858.75 394.056C857.15 394.056 855.678 394.424 854.334 395.16C853.022 395.864 851.966 396.952 851.166 398.424C850.366 399.896 849.966 401.688 849.966 403.8C849.966 405.944 850.35 407.752 851.118 409.224C851.918 410.696 852.974 411.8 854.286 412.536C855.598 413.24 857.038 413.592 858.606 413.592ZM890.653 390.216C893.853 390.216 896.445 391.192 898.429 393.144C900.413 395.064 901.405 397.848 901.405 401.496V417H897.085V402.12C897.085 399.496 896.429 397.496 895.117 396.12C893.805 394.712 892.013 394.008 889.741 394.008C887.437 394.008 885.597 394.728 884.221 396.168C882.877 397.608 882.205 399.704 882.205 402.456V417H877.837V390.696H882.205V394.44C883.069 393.096 884.237 392.056 885.709 391.32C887.213 390.584 888.861 390.216 890.653 390.216ZM919.388 390.264C921.66 390.264 923.644 390.76 925.34 391.752C927.068 392.744 928.348 393.992 929.18 395.496V390.696H933.596V417.576C933.596 419.976 933.084 422.104 932.06 423.96C931.036 425.848 929.564 427.32 927.644 428.376C925.756 429.432 923.548 429.96 921.02 429.96C917.564 429.96 914.684 429.144 912.38 427.512C910.076 425.88 908.716 423.656 908.3 420.84H912.62C913.1 422.44 914.092 423.72 915.596 424.68C917.1 425.672 918.908 426.168 921.02 426.168C923.42 426.168 925.372 425.416 926.876 423.912C928.412 422.408 929.18 420.296 929.18 417.576V412.056C928.316 413.592 927.036 414.872 925.34 415.896C923.644 416.92 921.66 417.432 919.388 417.432C917.052 417.432 914.924 416.856 913.004 415.704C911.116 414.552 909.628 412.936 908.54 410.856C907.452 408.776 906.908 406.408 906.908 403.752C906.908 401.064 907.452 398.712 908.54 396.696C909.628 394.648 911.116 393.064 913.004 391.944C914.924 390.824 917.052 390.264 919.388 390.264ZM929.18 403.8C929.18 401.816 928.78 400.088 927.98 398.616C927.18 397.144 926.092 396.024 924.716 395.256C923.372 394.456 921.884 394.056 920.252 394.056C918.62 394.056 917.132 394.44 915.788 395.208C914.444 395.976 913.372 397.096 912.572 398.568C911.772 400.04 911.372 401.768 911.372 403.752C911.372 405.768 911.772 407.528 912.572 409.032C913.372 410.504 914.444 411.64 915.788 412.44C917.132 413.208 918.62 413.592 920.252 413.592C921.884 413.592 923.372 413.208 924.716 412.44C926.092 411.64 927.18 410.504 927.98 409.032C928.78 407.528 929.18 405.784 929.18 403.8Z" fill="#9B9FA3"/>
<rect x="2" y="566" width="1627" height="226" rx="36" fill="#151618" stroke="#4C5053" stroke-width="4"/>
<circle cx="114" cy="679" r="58" fill="#563411"/>
<line y1="679" x2="76" y2="679" stroke="#F09F10" stroke-width="8"/>
<path d="M1518.66 679L1534.24 663.424C1535.25 662.411 1535.25 660.773 1534.24 659.76C1533.23 658.747 1531.59 658.747 1530.58 659.76L1515 675.336L1499.42 659.76C1498.41 658.747 1496.77 658.747 1495.76 659.76C1494.75 660.773 1494.75 662.411 1495.76 663.424L1511.34 679L1495.76 694.576C1494.75 695.589 1494.75 697.228 1495.76 698.241C1496.27 698.746 1496.93 699 1497.59 699C1498.26 699 1498.92 698.746 1499.42 698.241L1515 682.665L1530.58 698.241C1531.08 698.746 1531.74 699 1532.41 699C1533.07 699 1533.73 698.746 1534.24 698.241C1535.25 697.228 1535.25 695.589 1534.24 694.576L1518.66 679Z" fill="#9B9FA3"/>
<path d="M266.88 660.08L255.344 699H248.12L239.944 669.544L231.264 699L224.096 699.056L213.064 660.08H219.84L227.904 691.776L236.64 660.08H243.808L251.928 691.608L260.048 660.08H266.88ZM270.017 683.432C270.017 680.333 270.652 677.589 271.921 675.2C273.228 672.811 274.983 670.963 277.185 669.656C279.425 668.312 281.889 667.64 284.577 667.64C287.004 667.64 289.113 668.125 290.905 669.096C292.735 670.029 294.191 671.205 295.273 672.624V668.144H301.713V699H295.273V694.408C294.191 695.864 292.716 697.077 290.849 698.048C288.983 699.019 286.855 699.504 284.465 699.504C281.815 699.504 279.388 698.832 277.185 697.488C274.983 696.107 273.228 694.203 271.921 691.776C270.652 689.312 270.017 686.531 270.017 683.432ZM295.273 683.544C295.273 681.416 294.825 679.568 293.929 678C293.071 676.432 291.932 675.237 290.513 674.416C289.095 673.595 287.564 673.184 285.921 673.184C284.279 673.184 282.748 673.595 281.329 674.416C279.911 675.2 278.753 676.376 277.857 677.944C276.999 679.475 276.569 681.304 276.569 683.432C276.569 685.56 276.999 687.427 277.857 689.032C278.753 690.637 279.911 691.869 281.329 692.728C282.785 693.549 284.316 693.96 285.921 693.96C287.564 693.96 289.095 693.549 290.513 692.728C291.932 691.907 293.071 690.712 293.929 689.144C294.825 687.539 295.273 685.672 295.273 683.544ZM316.482 672.624C317.416 671.056 318.648 669.843 320.178 668.984C321.746 668.088 323.594 667.64 325.722 667.64V674.248H324.098C321.597 674.248 319.693 674.883 318.386 676.152C317.117 677.421 316.482 679.624 316.482 682.76V699H310.098V668.144H316.482V672.624ZM347.159 667.64C349.585 667.64 351.751 668.144 353.655 669.152C355.596 670.16 357.108 671.653 358.191 673.632C359.273 675.611 359.815 678 359.815 680.8V699H353.487V681.752C353.487 678.989 352.796 676.88 351.415 675.424C350.033 673.931 348.148 673.184 345.759 673.184C343.369 673.184 341.465 673.931 340.047 675.424C338.665 676.88 337.975 678.989 337.975 681.752V699H331.591V668.144H337.975V671.672C339.02 670.403 340.345 669.413 341.951 668.704C343.593 667.995 345.329 667.64 347.159 667.64ZM371.206 664.056C370.048 664.056 369.078 663.664 368.294 662.88C367.51 662.096 367.118 661.125 367.118 659.968C367.118 658.811 367.51 657.84 368.294 657.056C369.078 656.272 370.048 655.88 371.206 655.88C372.326 655.88 373.278 656.272 374.062 657.056C374.846 657.84 375.238 658.811 375.238 659.968C375.238 661.125 374.846 662.096 374.062 662.88C373.278 663.664 372.326 664.056 371.206 664.056ZM374.342 668.144V699H367.958V668.144H374.342ZM398.291 667.64C400.718 667.64 402.883 668.144 404.787 669.152C406.729 670.16 408.241 671.653 409.323 673.632C410.406 675.611 410.947 678 410.947 680.8V699H404.619V681.752C404.619 678.989 403.929 676.88 402.547 675.424C401.166 673.931 399.281 673.184 396.891 673.184C394.502 673.184 392.598 673.931 391.179 675.424C389.798 676.88 389.107 678.989 389.107 681.752V699H382.723V668.144H389.107V671.672C390.153 670.403 391.478 669.413 393.083 668.704C394.726 667.995 396.462 667.64 398.291 667.64ZM431.523 667.64C433.912 667.64 436.021 668.125 437.851 669.096C439.717 670.029 441.173 671.205 442.219 672.624V668.144H448.659V699.504C448.659 702.341 448.061 704.861 446.867 707.064C445.672 709.304 443.936 711.059 441.659 712.328C439.419 713.597 436.731 714.232 433.595 714.232C429.413 714.232 425.941 713.243 423.179 711.264C420.416 709.323 418.848 706.672 418.475 703.312H424.803C425.288 704.917 426.315 706.205 427.883 707.176C429.488 708.184 431.392 708.688 433.595 708.688C436.171 708.688 438.243 707.904 439.811 706.336C441.416 704.768 442.219 702.491 442.219 699.504V694.352C441.136 695.808 439.661 697.04 437.795 698.048C435.965 699.019 433.875 699.504 431.523 699.504C428.835 699.504 426.371 698.832 424.131 697.488C421.928 696.107 420.173 694.203 418.867 691.776C417.597 689.312 416.963 686.531 416.963 683.432C416.963 680.333 417.597 677.589 418.867 675.2C420.173 672.811 421.928 670.963 424.131 669.656C426.371 668.312 428.835 667.64 431.523 667.64ZM442.219 683.544C442.219 681.416 441.771 679.568 440.875 678C440.016 676.432 438.877 675.237 437.459 674.416C436.04 673.595 434.509 673.184 432.867 673.184C431.224 673.184 429.693 673.595 428.275 674.416C426.856 675.2 425.699 676.376 424.803 677.944C423.944 679.475 423.515 681.304 423.515 683.432C423.515 685.56 423.944 687.427 424.803 689.032C425.699 690.637 426.856 691.869 428.275 692.728C429.731 693.549 431.261 693.96 432.867 693.96C434.509 693.96 436.04 693.549 437.459 692.728C438.877 691.907 440.016 690.712 440.875 689.144C441.771 687.539 442.219 685.672 442.219 683.544Z" fill="white"/>
<path d="M520.12 665.544L509.224 686.376V699H504.856V686.376L493.912 665.544H498.76L507.016 682.488L515.272 665.544H520.12ZM536.199 699.432C533.735 699.432 531.495 698.872 529.479 697.752C527.495 696.632 525.927 695.048 524.775 693C523.655 690.92 523.095 688.52 523.095 685.8C523.095 683.112 523.671 680.744 524.823 678.696C526.007 676.616 527.607 675.032 529.623 673.944C531.639 672.824 533.895 672.264 536.391 672.264C538.887 672.264 541.143 672.824 543.159 673.944C545.175 675.032 546.759 676.6 547.911 678.648C549.095 680.696 549.687 683.08 549.687 685.8C549.687 688.52 549.079 690.92 547.863 693C546.679 695.048 545.063 696.632 543.015 697.752C540.967 698.872 538.695 699.432 536.199 699.432ZM536.199 695.592C537.767 695.592 539.239 695.224 540.615 694.488C541.991 693.752 543.095 692.648 543.927 691.176C544.791 689.704 545.223 687.912 545.223 685.8C545.223 683.688 544.807 681.896 543.975 680.424C543.143 678.952 542.055 677.864 540.711 677.16C539.367 676.424 537.911 676.056 536.343 676.056C534.743 676.056 533.271 676.424 531.927 677.16C530.615 677.864 529.559 678.952 528.759 680.424C527.959 681.896 527.559 683.688 527.559 685.8C527.559 687.944 527.943 689.752 528.711 691.224C529.511 692.696 530.567 693.8 531.879 694.536C533.191 695.24 534.631 695.592 536.199 695.592ZM578.758 672.696V699H574.39V695.112C573.558 696.456 572.39 697.512 570.886 698.28C569.414 699.016 567.782 699.384 565.99 699.384C563.942 699.384 562.102 698.968 560.47 698.136C558.838 697.272 557.542 695.992 556.582 694.296C555.654 692.6 555.19 690.536 555.19 688.104V672.696H559.51V687.528C559.51 690.12 560.166 692.12 561.478 693.528C562.79 694.904 564.582 695.592 566.854 695.592C569.19 695.592 571.03 694.872 572.374 693.432C573.718 691.992 574.39 689.896 574.39 687.144V672.696H578.758ZM590.502 676.968C591.27 675.464 592.358 674.296 593.766 673.464C595.206 672.632 596.95 672.216 598.998 672.216V676.728H597.846C592.95 676.728 590.502 679.384 590.502 684.696V699H586.134V672.696H590.502V676.968ZM615.205 685.8C615.205 683.08 615.749 680.712 616.837 678.696C617.925 676.648 619.429 675.064 621.349 673.944C623.301 672.824 625.525 672.264 628.021 672.264C631.253 672.264 633.909 673.048 635.989 674.616C638.101 676.184 639.493 678.36 640.165 681.144H635.461C635.013 679.544 634.133 678.28 632.821 677.352C631.541 676.424 629.941 675.96 628.021 675.96C625.525 675.96 623.509 676.824 621.973 678.552C620.437 680.248 619.669 682.664 619.669 685.8C619.669 688.968 620.437 691.416 621.973 693.144C623.509 694.872 625.525 695.736 628.021 695.736C629.941 695.736 631.541 695.288 632.821 694.392C634.101 693.496 634.981 692.216 635.461 690.552H640.165C639.461 693.24 638.053 695.4 635.941 697.032C633.829 698.632 631.189 699.432 628.021 699.432C625.525 699.432 623.301 698.872 621.349 697.752C619.429 696.632 617.925 695.048 616.837 693C615.749 690.952 615.205 688.552 615.205 685.8ZM659.049 672.216C661.033 672.216 662.825 672.648 664.425 673.512C666.025 674.344 667.273 675.608 668.169 677.304C669.097 679 669.561 681.064 669.561 683.496V699H665.241V684.12C665.241 681.496 664.585 679.496 663.273 678.12C661.961 676.712 660.169 676.008 657.897 676.008C655.593 676.008 653.753 676.728 652.377 678.168C651.033 679.608 650.361 681.704 650.361 684.456V699H645.993V663.48H650.361V676.44C651.225 675.096 652.409 674.056 653.913 673.32C655.449 672.584 657.161 672.216 659.049 672.216ZM675.064 685.752C675.064 683.064 675.608 680.712 676.696 678.696C677.784 676.648 679.272 675.064 681.16 673.944C683.08 672.824 685.208 672.264 687.544 672.264C689.848 672.264 691.848 672.76 693.544 673.752C695.24 674.744 696.504 675.992 697.336 677.496V672.696H701.752V699H697.336V694.104C696.472 695.64 695.176 696.92 693.448 697.944C691.752 698.936 689.768 699.432 687.496 699.432C685.16 699.432 683.048 698.856 681.16 697.704C679.272 696.552 677.784 694.936 676.696 692.856C675.608 690.776 675.064 688.408 675.064 685.752ZM697.336 685.8C697.336 683.816 696.936 682.088 696.136 680.616C695.336 679.144 694.248 678.024 692.872 677.256C691.528 676.456 690.04 676.056 688.408 676.056C686.776 676.056 685.288 676.44 683.944 677.208C682.6 677.976 681.528 679.096 680.728 680.568C679.928 682.04 679.528 683.768 679.528 685.752C679.528 687.768 679.928 689.528 680.728 691.032C681.528 692.504 682.6 693.64 683.944 694.44C685.288 695.208 686.776 695.592 688.408 695.592C690.04 695.592 691.528 695.208 692.872 694.44C694.248 693.64 695.336 692.504 696.136 691.032C696.936 689.528 697.336 687.784 697.336 685.8ZM721.95 672.216C725.15 672.216 727.742 673.192 729.726 675.144C731.71 677.064 732.702 679.848 732.702 683.496V699H728.382V684.12C728.382 681.496 727.726 679.496 726.414 678.12C725.102 676.712 723.31 676.008 721.038 676.008C718.734 676.008 716.894 676.728 715.518 678.168C714.174 679.608 713.502 681.704 713.502 684.456V699H709.134V672.696H713.502V676.44C714.366 675.096 715.534 674.056 717.006 673.32C718.51 672.584 720.158 672.216 721.95 672.216ZM750.685 672.264C752.957 672.264 754.941 672.76 756.637 673.752C758.365 674.744 759.645 675.992 760.477 677.496V672.696H764.893V699.576C764.893 701.976 764.381 704.104 763.357 705.96C762.333 707.848 760.861 709.32 758.941 710.376C757.053 711.432 754.845 711.96 752.317 711.96C748.861 711.96 745.981 711.144 743.677 709.512C741.373 707.88 740.013 705.656 739.597 702.84H743.917C744.397 704.44 745.389 705.72 746.893 706.68C748.397 707.672 750.205 708.168 752.317 708.168C754.717 708.168 756.669 707.416 758.173 705.912C759.709 704.408 760.477 702.296 760.477 699.576V694.056C759.613 695.592 758.333 696.872 756.637 697.896C754.941 698.92 752.957 699.432 750.685 699.432C748.349 699.432 746.221 698.856 744.301 697.704C742.413 696.552 740.925 694.936 739.837 692.856C738.749 690.776 738.205 688.408 738.205 685.752C738.205 683.064 738.749 680.712 739.837 678.696C740.925 676.648 742.413 675.064 744.301 673.944C746.221 672.824 748.349 672.264 750.685 672.264ZM760.477 685.8C760.477 683.816 760.077 682.088 759.277 680.616C758.477 679.144 757.389 678.024 756.013 677.256C754.669 676.456 753.181 676.056 751.549 676.056C749.917 676.056 748.429 676.44 747.085 677.208C745.741 677.976 744.669 679.096 743.869 680.568C743.069 682.04 742.669 683.768 742.669 685.752C742.669 687.768 743.069 689.528 743.869 691.032C744.669 692.504 745.741 693.64 747.085 694.44C748.429 695.208 749.917 695.592 751.549 695.592C753.181 695.592 754.669 695.208 756.013 694.44C757.389 693.64 758.477 692.504 759.277 691.032C760.077 689.528 760.477 687.784 760.477 685.8ZM796.274 684.84C796.274 685.672 796.226 686.552 796.13 687.48H775.106C775.266 690.072 776.146 692.104 777.746 693.576C779.378 695.016 781.346 695.736 783.65 695.736C785.538 695.736 787.106 695.304 788.354 694.44C789.634 693.544 790.53 692.36 791.042 690.888H795.746C795.042 693.416 793.634 695.48 791.522 697.08C789.41 698.648 786.786 699.432 783.65 699.432C781.154 699.432 778.914 698.872 776.93 697.752C774.978 696.632 773.442 695.048 772.322 693C771.202 690.92 770.642 688.52 770.642 685.8C770.642 683.08 771.186 680.696 772.274 678.648C773.362 676.6 774.882 675.032 776.834 673.944C778.818 672.824 781.09 672.264 783.65 672.264C786.146 672.264 788.354 672.808 790.274 673.896C792.194 674.984 793.666 676.488 794.69 678.408C795.746 680.296 796.274 682.44 796.274 684.84ZM791.762 683.928C791.762 682.264 791.394 680.84 790.658 679.656C789.922 678.44 788.914 677.528 787.634 676.92C786.386 676.28 784.994 675.96 783.458 675.96C781.25 675.96 779.362 676.664 777.794 678.072C776.258 679.48 775.378 681.432 775.154 683.928H791.762ZM811.352 699.432C809.336 699.432 807.528 699.096 805.928 698.424C804.328 697.72 803.064 696.76 802.136 695.544C801.208 694.296 800.696 692.872 800.6 691.272H805.112C805.24 692.584 805.848 693.656 806.936 694.488C808.056 695.32 809.512 695.736 811.304 695.736C812.968 695.736 814.28 695.368 815.24 694.632C816.2 693.896 816.68 692.968 816.68 691.848C816.68 690.696 816.168 689.848 815.144 689.304C814.12 688.728 812.536 688.168 810.392 687.624C808.44 687.112 806.84 686.6 805.592 686.088C804.376 685.544 803.32 684.76 802.424 683.736C801.56 682.68 801.128 681.304 801.128 679.608C801.128 678.264 801.528 677.032 802.328 675.912C803.128 674.792 804.264 673.912 805.736 673.272C807.208 672.6 808.888 672.264 810.776 672.264C813.688 672.264 816.04 673 817.832 674.472C819.624 675.944 820.584 677.96 820.712 680.52H816.344C816.248 679.144 815.688 678.04 814.664 677.208C813.672 676.376 812.328 675.96 810.632 675.96C809.064 675.96 807.816 676.296 806.888 676.968C805.96 677.64 805.496 678.52 805.496 679.608C805.496 680.472 805.768 681.192 806.312 681.768C806.888 682.312 807.592 682.76 808.424 683.112C809.288 683.432 810.472 683.8 811.976 684.216C813.864 684.728 815.4 685.24 816.584 685.752C817.768 686.232 818.776 686.968 819.608 687.96C820.472 688.952 820.92 690.248 820.952 691.848C820.952 693.288 820.552 694.584 819.752 695.736C818.952 696.888 817.816 697.8 816.344 698.472C814.904 699.112 813.24 699.432 811.352 699.432ZM838.283 685.8C838.283 683.08 838.827 680.712 839.915 678.696C841.003 676.648 842.507 675.064 844.427 673.944C846.379 672.824 848.603 672.264 851.099 672.264C854.331 672.264 856.987 673.048 859.067 674.616C861.179 676.184 862.571 678.36 863.243 681.144H858.539C858.091 679.544 857.211 678.28 855.899 677.352C854.619 676.424 853.019 675.96 851.099 675.96C848.603 675.96 846.587 676.824 845.051 678.552C843.515 680.248 842.747 682.664 842.747 685.8C842.747 688.968 843.515 691.416 845.051 693.144C846.587 694.872 848.603 695.736 851.099 695.736C853.019 695.736 854.619 695.288 855.899 694.392C857.179 693.496 858.059 692.216 858.539 690.552H863.243C862.539 693.24 861.131 695.4 859.019 697.032C856.907 698.632 854.267 699.432 851.099 699.432C848.603 699.432 846.379 698.872 844.427 697.752C842.507 696.632 841.003 695.048 839.915 693C838.827 690.952 838.283 688.552 838.283 685.8ZM867.439 685.752C867.439 683.064 867.983 680.712 869.071 678.696C870.159 676.648 871.647 675.064 873.535 673.944C875.455 672.824 877.583 672.264 879.919 672.264C882.223 672.264 884.223 672.76 885.919 673.752C887.615 674.744 888.879 675.992 889.711 677.496V672.696H894.127V699H889.711V694.104C888.847 695.64 887.551 696.92 885.823 697.944C884.127 698.936 882.143 699.432 879.871 699.432C877.535 699.432 875.423 698.856 873.535 697.704C871.647 696.552 870.159 694.936 869.071 692.856C867.983 690.776 867.439 688.408 867.439 685.752ZM889.711 685.8C889.711 683.816 889.311 682.088 888.511 680.616C887.711 679.144 886.623 678.024 885.247 677.256C883.903 676.456 882.415 676.056 880.783 676.056C879.151 676.056 877.663 676.44 876.319 677.208C874.975 677.976 873.903 679.096 873.103 680.568C872.303 682.04 871.903 683.768 871.903 685.752C871.903 687.768 872.303 689.528 873.103 691.032C873.903 692.504 874.975 693.64 876.319 694.44C877.663 695.208 879.151 695.592 880.783 695.592C882.415 695.592 883.903 695.208 885.247 694.44C886.623 693.64 887.711 692.504 888.511 691.032C889.311 689.528 889.711 687.784 889.711 685.8ZM914.325 672.216C917.525 672.216 920.117 673.192 922.101 675.144C924.085 677.064 925.077 679.848 925.077 683.496V699H920.757V684.12C920.757 681.496 920.101 679.496 918.789 678.12C917.477 676.712 915.685 676.008 913.413 676.008C911.109 676.008 909.269 676.728 907.893 678.168C906.549 679.608 905.877 681.704 905.877 684.456V699H901.509V672.696H905.877V676.44C906.741 675.096 907.909 674.056 909.381 673.32C910.885 672.584 912.533 672.216 914.325 672.216ZM945.028 672.216C948.228 672.216 950.82 673.192 952.804 675.144C954.788 677.064 955.78 679.848 955.78 683.496V699H951.46V684.12C951.46 681.496 950.804 679.496 949.492 678.12C948.18 676.712 946.388 676.008 944.116 676.008C941.812 676.008 939.972 676.728 938.596 678.168C937.252 679.608 936.58 681.704 936.58 684.456V699H932.212V672.696H936.58V676.44C937.444 675.096 938.612 674.056 940.084 673.32C941.588 672.584 943.236 672.216 945.028 672.216ZM974.387 699.432C971.923 699.432 969.683 698.872 967.667 697.752C965.683 696.632 964.115 695.048 962.963 693C961.843 690.92 961.283 688.52 961.283 685.8C961.283 683.112 961.859 680.744 963.011 678.696C964.195 676.616 965.795 675.032 967.811 673.944C969.827 672.824 972.083 672.264 974.579 672.264C977.075 672.264 979.331 672.824 981.347 673.944C983.363 675.032 984.947 676.6 986.099 678.648C987.283 680.696 987.875 683.08 987.875 685.8C987.875 688.52 987.267 690.92 986.051 693C984.867 695.048 983.251 696.632 981.203 697.752C979.155 698.872 976.883 699.432 974.387 699.432ZM974.387 695.592C975.955 695.592 977.427 695.224 978.803 694.488C980.179 693.752 981.283 692.648 982.115 691.176C982.979 689.704 983.411 687.912 983.411 685.8C983.411 683.688 982.995 681.896 982.163 680.424C981.331 678.952 980.243 677.864 978.899 677.16C977.555 676.424 976.099 676.056 974.531 676.056C972.931 676.056 971.459 676.424 970.115 677.16C968.803 677.864 967.747 678.952 966.947 680.424C966.147 681.896 965.747 683.688 965.747 685.8C965.747 687.944 966.131 689.752 966.899 691.224C967.699 692.696 968.755 693.8 970.067 694.536C971.379 695.24 972.819 695.592 974.387 695.592ZM998.946 676.296V691.8C998.946 693.08 999.218 693.992 999.762 694.536C1000.31 695.048 1001.25 695.304 1002.59 695.304H1005.81V699H1001.87C999.442 699 997.618 698.44 996.402 697.32C995.186 696.2 994.578 694.36 994.578 691.8V676.296H991.17V672.696H994.578V666.072H998.946V672.696H1005.81V676.296H998.946ZM1028.27 677.592C1029.16 676.024 1030.48 674.744 1032.2 673.752C1033.93 672.76 1035.9 672.264 1038.11 672.264C1040.48 672.264 1042.6 672.824 1044.49 673.944C1046.38 675.064 1047.87 676.648 1048.96 678.696C1050.04 680.712 1050.59 683.064 1050.59 685.752C1050.59 688.408 1050.04 690.776 1048.96 692.856C1047.87 694.936 1046.36 696.552 1044.44 697.704C1042.56 698.856 1040.44 699.432 1038.11 699.432C1035.84 699.432 1033.84 698.936 1032.11 697.944C1030.41 696.952 1029.13 695.688 1028.27 694.152V699H1023.9V663.48H1028.27V677.592ZM1046.12 685.752C1046.12 683.768 1045.72 682.04 1044.92 680.568C1044.12 679.096 1043.04 677.976 1041.66 677.208C1040.32 676.44 1038.83 676.056 1037.2 676.056C1035.6 676.056 1034.11 676.456 1032.73 677.256C1031.39 678.024 1030.3 679.16 1029.47 680.664C1028.67 682.136 1028.27 683.848 1028.27 685.8C1028.27 687.784 1028.67 689.528 1029.47 691.032C1030.3 692.504 1031.39 693.64 1032.73 694.44C1034.11 695.208 1035.6 695.592 1037.2 695.592C1038.83 695.592 1040.32 695.208 1041.66 694.44C1043.04 693.64 1044.12 692.504 1044.92 691.032C1045.72 689.528 1046.12 687.768 1046.12 685.752ZM1080.34 684.84C1080.34 685.672 1080.29 686.552 1080.19 687.48H1059.17C1059.33 690.072 1060.21 692.104 1061.81 693.576C1063.44 695.016 1065.41 695.736 1067.71 695.736C1069.6 695.736 1071.17 695.304 1072.42 694.44C1073.7 693.544 1074.59 692.36 1075.1 690.888H1079.81C1079.1 693.416 1077.7 695.48 1075.58 697.08C1073.47 698.648 1070.85 699.432 1067.71 699.432C1065.22 699.432 1062.98 698.872 1060.99 697.752C1059.04 696.632 1057.5 695.048 1056.38 693C1055.26 690.92 1054.7 688.52 1054.7 685.8C1054.7 683.08 1055.25 680.696 1056.34 678.648C1057.42 676.6 1058.94 675.032 1060.9 673.944C1062.88 672.824 1065.15 672.264 1067.71 672.264C1070.21 672.264 1072.42 672.808 1074.34 673.896C1076.26 674.984 1077.73 676.488 1078.75 678.408C1079.81 680.296 1080.34 682.44 1080.34 684.84ZM1075.82 683.928C1075.82 682.264 1075.46 680.84 1074.72 679.656C1073.98 678.44 1072.98 677.528 1071.7 676.92C1070.45 676.28 1069.06 675.96 1067.52 675.96C1065.31 675.96 1063.42 676.664 1061.86 678.072C1060.32 679.48 1059.44 681.432 1059.22 683.928H1075.82ZM1108.21 699.432C1106.2 699.432 1104.39 699.096 1102.79 698.424C1101.19 697.72 1099.92 696.76 1099 695.544C1098.07 694.296 1097.56 692.872 1097.46 691.272H1101.97C1102.1 692.584 1102.71 693.656 1103.8 694.488C1104.92 695.32 1106.37 695.736 1108.16 695.736C1109.83 695.736 1111.14 695.368 1112.1 694.632C1113.06 693.896 1113.54 692.968 1113.54 691.848C1113.54 690.696 1113.03 689.848 1112 689.304C1110.98 688.728 1109.4 688.168 1107.25 687.624C1105.3 687.112 1103.7 686.6 1102.45 686.088C1101.24 685.544 1100.18 684.76 1099.28 683.736C1098.42 682.68 1097.99 681.304 1097.99 679.608C1097.99 678.264 1098.39 677.032 1099.19 675.912C1099.99 674.792 1101.12 673.912 1102.6 673.272C1104.07 672.6 1105.75 672.264 1107.64 672.264C1110.55 672.264 1112.9 673 1114.69 674.472C1116.48 675.944 1117.44 677.96 1117.57 680.52H1113.2C1113.11 679.144 1112.55 678.04 1111.52 677.208C1110.53 676.376 1109.19 675.96 1107.49 675.96C1105.92 675.96 1104.68 676.296 1103.75 676.968C1102.82 677.64 1102.36 678.52 1102.36 679.608C1102.36 680.472 1102.63 681.192 1103.17 681.768C1103.75 682.312 1104.45 682.76 1105.28 683.112C1106.15 683.432 1107.33 683.8 1108.84 684.216C1110.72 684.728 1112.26 685.24 1113.44 685.752C1114.63 686.232 1115.64 686.968 1116.47 687.96C1117.33 688.952 1117.78 690.248 1117.81 691.848C1117.81 693.288 1117.41 694.584 1116.61 695.736C1115.81 696.888 1114.68 697.8 1113.2 698.472C1111.76 699.112 1110.1 699.432 1108.21 699.432ZM1122.35 685.752C1122.35 683.064 1122.89 680.712 1123.98 678.696C1125.07 676.648 1126.55 675.064 1128.44 673.944C1130.36 672.824 1132.49 672.264 1134.83 672.264C1137.13 672.264 1139.13 672.76 1140.83 673.752C1142.52 674.744 1143.79 675.992 1144.62 677.496V672.696H1149.03V699H1144.62V694.104C1143.75 695.64 1142.46 696.92 1140.73 697.944C1139.03 698.936 1137.05 699.432 1134.78 699.432C1132.44 699.432 1130.33 698.856 1128.44 697.704C1126.55 696.552 1125.07 694.936 1123.98 692.856C1122.89 690.776 1122.35 688.408 1122.35 685.752ZM1144.62 685.8C1144.62 683.816 1144.22 682.088 1143.42 680.616C1142.62 679.144 1141.53 678.024 1140.15 677.256C1138.81 676.456 1137.32 676.056 1135.69 676.056C1134.06 676.056 1132.57 676.44 1131.23 677.208C1129.88 677.976 1128.81 679.096 1128.01 680.568C1127.21 682.04 1126.81 683.768 1126.81 685.752C1126.81 687.768 1127.21 689.528 1128.01 691.032C1128.81 692.504 1129.88 693.64 1131.23 694.44C1132.57 695.208 1134.06 695.592 1135.69 695.592C1137.32 695.592 1138.81 695.208 1140.15 694.44C1141.53 693.64 1142.62 692.504 1143.42 691.032C1144.22 689.528 1144.62 687.784 1144.62 685.8ZM1166.21 694.968L1174.37 672.696H1179.02L1168.7 699H1163.61L1153.29 672.696H1158L1166.21 694.968ZM1207.32 684.84C1207.32 685.672 1207.27 686.552 1207.18 687.48H1186.15C1186.31 690.072 1187.19 692.104 1188.79 693.576C1190.43 695.016 1192.39 695.736 1194.7 695.736C1196.59 695.736 1198.15 695.304 1199.4 694.44C1200.68 693.544 1201.58 692.36 1202.09 690.888H1206.79C1206.09 693.416 1204.68 695.48 1202.57 697.08C1200.46 698.648 1197.83 699.432 1194.7 699.432C1192.2 699.432 1189.96 698.872 1187.98 697.752C1186.03 696.632 1184.49 695.048 1183.37 693C1182.25 690.92 1181.69 688.52 1181.69 685.8C1181.69 683.08 1182.23 680.696 1183.32 678.648C1184.41 676.6 1185.93 675.032 1187.88 673.944C1189.87 672.824 1192.14 672.264 1194.7 672.264C1197.19 672.264 1199.4 672.808 1201.32 673.896C1203.24 674.984 1204.71 676.488 1205.74 678.408C1206.79 680.296 1207.32 682.44 1207.32 684.84ZM1202.81 683.928C1202.81 682.264 1202.44 680.84 1201.71 679.656C1200.97 678.44 1199.96 677.528 1198.68 676.92C1197.43 676.28 1196.04 675.96 1194.51 675.96C1192.3 675.96 1190.41 676.664 1188.84 678.072C1187.31 679.48 1186.43 681.432 1186.2 683.928H1202.81ZM1211.45 685.752C1211.45 683.064 1212 680.712 1213.09 678.696C1214.17 676.648 1215.66 675.064 1217.55 673.944C1219.47 672.824 1221.61 672.264 1223.98 672.264C1226.03 672.264 1227.93 672.744 1229.69 673.704C1231.45 674.632 1232.8 675.864 1233.73 677.4V663.48H1238.14V699H1233.73V694.056C1232.86 695.624 1231.58 696.92 1229.89 697.944C1228.19 698.936 1226.21 699.432 1223.93 699.432C1221.6 699.432 1219.47 698.856 1217.55 697.704C1215.66 696.552 1214.17 694.936 1213.09 692.856C1212 690.776 1211.45 688.408 1211.45 685.752ZM1233.73 685.8C1233.73 683.816 1233.33 682.088 1232.53 680.616C1231.73 679.144 1230.64 678.024 1229.26 677.256C1227.92 676.456 1226.43 676.056 1224.8 676.056C1223.17 676.056 1221.68 676.44 1220.33 677.208C1218.99 677.976 1217.92 679.096 1217.12 680.568C1216.32 682.04 1215.92 683.768 1215.92 685.752C1215.92 687.768 1216.32 689.528 1217.12 691.032C1217.92 692.504 1218.99 693.64 1220.33 694.44C1221.68 695.208 1223.17 695.592 1224.8 695.592C1226.43 695.592 1227.92 695.208 1229.26 694.44C1230.64 693.64 1231.73 692.504 1232.53 691.032C1233.33 689.528 1233.73 687.784 1233.73 685.8Z" fill="#9B9FA3"/>
<circle cx="114" cy="679" r="39" stroke="#F09F10" stroke-width="8"/>
<path d="M114.489 692.349C116.19 692.349 117.605 691.047 117.748 689.352L119.959 662.948C120.088 661.417 119.568 659.903 118.529 658.773C117.491 657.643 116.025 657 114.489 657C112.954 657 111.487 657.643 110.449 658.773C109.41 659.903 108.891 661.417 109.019 662.948L111.23 689.352C111.373 691.047 112.789 692.349 114.489 692.349Z" fill="white"/>
<path d="M114.49 694.299C112.522 694.299 110.927 695.893 110.927 697.861C110.927 699.829 112.522 701.424 114.49 701.424C116.457 701.424 118.052 699.829 118.052 697.861C118.052 695.893 116.457 694.299 114.49 694.299Z" fill="white"/>
<defs>
<clipPath id="clip0_15243_1800">
<rect width="53" height="53" fill="white" transform="translate(88 370)"/>
</clipPath>
</defs>
</svg>
