<svg width="172" height="116" viewBox="0 0 172 116" fill="none" xmlns="http://www.w3.org/2000/svg">
<circle cx="114" cy="58" r="58" fill="#563411"/>
<line y1="58" x2="76" y2="58" stroke="#F09F10" stroke-width="8"/>
<circle cx="114" cy="58" r="39" stroke="#F09F10" stroke-width="8"/>
<path d="M114.489 71.3494C116.19 71.3494 117.605 70.0466 117.748 68.3521L119.959 41.9485C120.088 40.4171 119.568 38.9033 118.529 37.7727C117.491 36.6435 116.025 36 114.489 36C112.954 36 111.487 36.6435 110.449 37.7727C109.41 38.9033 108.891 40.4171 109.019 41.9485L111.23 68.3521C111.373 70.0466 112.789 71.3494 114.489 71.3494Z" fill="white"/>
<path d="M114.49 73.2987C112.522 73.2987 110.927 74.8934 110.927 76.8615C110.927 78.8293 112.522 80.424 114.49 80.424C116.457 80.424 118.052 78.8293 118.052 76.8615C118.052 74.8934 116.457 73.2987 114.49 73.2987Z" fill="white"/>
</svg>
