<svg width="172" height="116" viewBox="0 0 172 116" fill="none" xmlns="http://www.w3.org/2000/svg">
<circle cx="114" cy="58" r="58" fill="#5B221B"/>
<g clip-path="url(#clip0_15243_1815)">
<mask id="mask0_15243_1815" style="mask-type:luminance" maskUnits="userSpaceOnUse" x="88" y="31" width="53" height="53">
<path d="M88 31H141V84H88V31Z" fill="white"/>
</mask>
<g mask="url(#mask0_15243_1815)">
<path d="M114.499 35.9974C102.469 35.9974 92.7051 45.7612 92.7051 57.7916C92.7051 69.8221 102.469 79.5859 114.499 79.5859C126.53 79.5859 136.294 69.8221 136.294 57.7916C136.294 45.7612 126.53 35.9974 114.499 35.9974ZM114.499 75.2271C104.866 75.2271 97.0639 67.4247 97.0639 57.7916C97.0639 53.7597 98.437 50.0547 100.747 47.1125L125.179 71.5438C122.236 73.854 118.531 75.2271 114.499 75.2271ZM128.252 68.4708L103.82 44.0395C106.762 41.7293 110.467 40.3562 114.499 40.3562C124.132 40.3562 131.935 48.1586 131.935 57.7916C131.935 61.8236 130.562 65.5286 128.252 68.4708Z" fill="white"/>
</g>
</g>
<circle cx="114" cy="58" r="39" stroke="#F16953" stroke-width="8"/>
<line y1="58" x2="76" y2="58" stroke="#F16953" stroke-width="8"/>
<defs>
<clipPath id="clip0_15243_1815">
<rect width="53" height="53" fill="white" transform="translate(88 31)"/>
</clipPath>
</defs>
</svg>
